<svg width="34" height="39" viewBox="0 0 34 39" fill="none" xmlns="http://www.w3.org/2000/svg">
<g clip-path="url(#clip0)">
<path d="M0.00759624 37.4987C-0.075886 38.2197 0.485722 38.8496 1.21429 38.8496L3.66564 38.8572C4.28037 38.8572 4.79644 38.4095 4.87992 37.8023C4.93305 37.4304 5.01653 36.9599 5.13796 36.4287H28.8393C28.9607 36.9523 29.0594 37.4304 29.1049 37.8023C29.1884 38.4095 29.7045 38.8648 30.3192 38.8572L32.7706 38.8496C33.4991 38.8496 34.0683 38.2197 33.9773 37.4987C33.6282 34.6224 32.0344 27.7086 24.9536 21.7358C23.6179 22.6769 22.138 23.5724 20.5139 24.4224C20.9844 24.7715 21.379 25.1358 21.804 25.5001H12.1201C13.7366 24.1264 15.6871 22.7983 18.0929 21.5992C31.1541 15.1104 33.5523 4.99384 33.9924 1.35858C34.0759 0.637593 33.5143 0.00768277 32.7858 0.00768277L30.3268 9.3483e-05C29.7121 9.3483e-05 29.196 0.447861 29.1125 1.055C29.0594 1.42688 28.9759 1.89741 28.8545 2.42866H5.14555C5.02412 1.89741 4.94064 1.43447 4.88751 1.055C4.80403 0.447861 4.28796 -0.0074958 3.67322 9.3483e-05L1.22188 0.00768277C0.493311 0.00768277 -0.075886 0.637593 0.00759624 1.35858C0.402239 4.61438 2.38304 13.0385 12.1429 19.4287C2.39063 25.8188 0.402239 34.2429 0.00759624 37.4987ZM17 16.6662C15.0951 15.6264 13.4786 14.5108 12.1201 13.3572H21.8723C20.5215 14.5108 18.9049 15.634 17 16.6662ZM26.9496 7.28581C26.5094 8.07509 25.9782 8.88715 25.3558 9.71438H8.6518C8.02189 8.88715 7.49064 8.07509 7.05805 7.28581H26.9496ZM7.05046 31.5715C7.49064 30.7822 8.02189 29.9702 8.64421 29.1429H25.2951C25.925 29.9702 26.4639 30.7822 26.904 31.5715H7.05046Z" fill="#36B3B3"/>
</g>
<defs>
<clipPath id="clip0">
<rect width="34" height="38.8571" fill="white"/>
</clipPath>
</defs>
</svg>
