<svg width="34" height="46" viewBox="0 0 34 46" fill="none" xmlns="http://www.w3.org/2000/svg">
<g clip-path="url(#clip0)">
<path d="M19.8333 12.0417V0H2.125C0.947396 0 0 0.947396 0 2.125V43.2083C0 44.3859 0.947396 45.3333 2.125 45.3333H31.875C33.0526 45.3333 34 44.3859 34 43.2083V14.1667H21.9583C20.7896 14.1667 19.8333 13.2104 19.8333 12.0417ZM5.66667 6.375C5.66667 5.98365 5.98365 5.66667 6.375 5.66667H13.4583C13.8497 5.66667 14.1667 5.98365 14.1667 6.375V7.79167C14.1667 8.18302 13.8497 8.5 13.4583 8.5H6.375C5.98365 8.5 5.66667 8.18302 5.66667 7.79167V6.375ZM5.66667 12.0417C5.66667 11.6503 5.98365 11.3333 6.375 11.3333H13.4583C13.8497 11.3333 14.1667 11.6503 14.1667 12.0417V13.4583C14.1667 13.8497 13.8497 14.1667 13.4583 14.1667H6.375C5.98365 14.1667 5.66667 13.8497 5.66667 13.4583V12.0417ZM22.7384 34H26.9167C27.6994 34 28.3333 34.634 28.3333 35.4167C28.3333 36.1994 27.6994 36.8333 26.9167 36.8333H22.7384C21.2819 36.8333 19.9697 36.0241 19.3171 34.7207C19.0559 34.1966 18.6008 34.1434 18.4167 34.1434C18.2325 34.1434 17.7774 34.1957 17.5295 34.6915L16.8504 36.0497C16.7328 36.2851 16.5519 36.483 16.3281 36.6212C16.1043 36.7595 15.8464 36.8326 15.5833 36.8324C15.5497 36.8324 15.5169 36.8307 15.4824 36.828C14.9113 36.7882 14.4199 36.4074 14.2402 35.8638L12.75 31.396L11.8106 34.2187C11.2891 35.7823 9.82901 36.8333 8.18036 36.8333H7.08333C6.30062 36.8333 5.66667 36.1994 5.66667 35.4167C5.66667 34.634 6.30062 34 7.08333 34H8.18036C8.60802 34 8.98698 33.7273 9.12245 33.3218L10.733 28.4839C11.0252 27.6153 11.8345 27.0309 12.75 27.0309C13.6655 27.0309 14.4748 27.6144 14.7661 28.4839L15.9951 32.1707C17.7455 30.7372 20.7807 31.3119 21.8388 33.4245C22.0177 33.784 22.3665 34 22.7384 34ZM33.3802 9.29688L24.712 0.619792C24.3135 0.221354 23.7734 0 23.2068 0H22.6667V11.3333H34V10.7932C34 10.2354 33.7786 9.69531 33.3802 9.29688Z" fill="#36B3B3"/>
</g>
<defs>
<clipPath id="clip0">
<rect width="34" height="45.3333" fill="white"/>
</clipPath>
</defs>
</svg>
