<svg width="30" height="35" viewBox="0 0 30 35" fill="none" xmlns="http://www.w3.org/2000/svg">
<path d="M26.7857 1.79395H3.21429C2.3618 1.79395 1.54424 2.13824 0.941442 2.75108C0.338647 3.36392 0 4.19511 0 5.0618L0 29.0261C0 29.8928 0.338647 30.724 0.941442 31.3368C1.54424 31.9497 2.3618 32.2939 3.21429 32.2939H12.4051V21.9246H8.18638V17.0439H12.4051V13.324C12.4051 9.09284 14.8828 6.75564 18.6777 6.75564C20.4951 6.75564 22.3955 7.08515 22.3955 7.08515V11.2381H20.3016C18.2384 11.2381 17.5949 12.5397 17.5949 13.8748V17.0439H22.2007L21.4641 21.9246H17.5949V32.2939H26.7857C27.6382 32.2939 28.4558 31.9497 29.0586 31.3368C29.6614 30.724 30 29.8928 30 29.0261V5.0618C30 4.19511 29.6614 3.36392 29.0586 2.75108C28.4558 2.13824 27.6382 1.79395 26.7857 1.79395Z" fill="#36B3B3"/>
</svg>
