<svg width="30" height="36" viewBox="0 0 30 36" fill="none" xmlns="http://www.w3.org/2000/svg">
<g clip-path="url(#clip0)">
<path d="M15.0058 9.91416C10.7469 9.91416 7.31163 13.5212 7.31163 17.9931C7.31163 22.4649 10.7469 26.072 15.0058 26.072C19.2648 26.072 22.7 22.4649 22.7 17.9931C22.7 13.5212 19.2648 9.91416 15.0058 9.91416ZM15.0058 23.2454C12.2536 23.2454 10.0036 20.8899 10.0036 17.9931C10.0036 15.0962 12.2469 12.7407 15.0058 12.7407C17.7648 12.7407 20.0081 15.0962 20.0081 17.9931C20.0081 20.8899 17.7581 23.2454 15.0058 23.2454ZM24.8094 9.58369C24.8094 10.6313 24.0058 11.4681 23.0148 11.4681C22.017 11.4681 21.2201 10.6243 21.2201 9.58369C21.2201 8.54307 22.0237 7.69932 23.0148 7.69932C24.0058 7.69932 24.8094 8.54307 24.8094 9.58369ZM29.9054 11.4962C29.7915 8.97197 29.2424 6.73603 27.4813 4.89385C25.7268 3.05166 23.5973 2.4751 21.1933 2.34854C18.7157 2.20088 11.2893 2.20088 8.81163 2.34854C6.41431 2.46807 4.28485 3.04463 2.52369 4.88682C0.762525 6.729 0.220115 8.96494 0.0995788 11.4892C-0.0410461 14.0907 -0.0410461 21.8884 0.0995788 24.4899C0.213418 27.0142 0.762525 29.2501 2.52369 31.0923C4.28485 32.9345 6.40761 33.511 8.81163 33.6376C11.2893 33.7852 18.7157 33.7852 21.1933 33.6376C23.5973 33.5181 25.7268 32.9415 27.4813 31.0923C29.2357 29.2501 29.7848 27.0142 29.9054 24.4899C30.046 21.8884 30.046 14.0978 29.9054 11.4962ZM26.7045 27.2813C26.1822 28.6595 25.171 29.7212 23.8518 30.2767C21.8764 31.0993 17.1889 30.9095 15.0058 30.9095C12.8228 30.9095 8.1286 31.0923 6.15985 30.2767C4.84735 29.7282 3.83619 28.6665 3.30717 27.2813C2.52369 25.2071 2.70449 20.2853 2.70449 17.9931C2.70449 15.7009 2.53038 10.772 3.30717 8.70478C3.82949 7.32666 4.84065 6.26494 6.15985 5.70947C8.13529 4.88682 12.8228 5.07666 15.0058 5.07666C17.1889 5.07666 21.8831 4.89385 23.8518 5.70947C25.1643 6.25791 26.1755 7.31963 26.7045 8.70478C27.488 10.779 27.3072 15.7009 27.3072 17.9931C27.3072 20.2853 27.488 25.2142 26.7045 27.2813Z" fill="#36B3B3"/>
</g>
<defs>
<clipPath id="clip0">
<rect width="30" height="36" fill="white"/>
</clipPath>
</defs>
</svg>
