<svg width="35" height="32" viewBox="0 0 35 32" fill="none" xmlns="http://www.w3.org/2000/svg">
<g clip-path="url(#clip0)">
<path d="M31.02 13.7023C30.6007 11.4418 28.6319 9.72222 26.25 9.72222C25.5026 9.72222 24.7977 9.90451 24.1658 10.2083C23.1085 8.74392 21.395 7.77778 19.4444 7.77778C16.224 7.77778 13.6111 10.3906 13.6111 13.6111C13.6111 13.6415 13.6233 13.678 13.6233 13.7083C11.3993 14.158 9.72222 16.1146 9.72222 18.4722C9.72222 21.158 11.8976 23.3333 14.5833 23.3333H30.1389C32.8247 23.3333 35 21.158 35 18.4722C35 16.0903 33.2865 14.1155 31.02 13.7023ZM7.5408 15.7925C5.26823 13.52 5.26823 9.81944 7.5408 7.5408C9.64323 5.43837 12.9549 5.30469 15.2396 7.09115C16.4549 6.30729 17.8889 5.83333 19.4444 5.83333C19.487 5.83333 19.5234 5.84549 19.566 5.84549L20.1068 4.22309C20.3134 3.6033 19.724 3.01997 19.1042 3.22656L14.5286 4.75174L12.3715 0.4375C12.0799 -0.145833 11.2474 -0.145833 10.9557 0.4375L8.79861 4.75174L4.22309 3.22656C3.6033 3.01997 3.01997 3.60937 3.22656 4.22917L4.75174 8.80469L0.4375 10.9618C-0.145833 11.2535 -0.145833 12.0859 0.4375 12.3776L4.75174 14.5347L3.22656 19.1102C3.01997 19.73 3.60937 20.3134 4.22917 20.1128L7.82639 18.9158C7.81424 18.77 7.78385 18.6302 7.78385 18.4783C7.78385 17.7188 7.92361 16.9896 8.16059 16.2969C7.94184 16.1328 7.72917 15.9809 7.5408 15.7925ZM11.7821 12.2682C12.0434 10.7795 12.7422 9.44878 13.7205 8.37934C13.125 8.0026 12.4201 7.77778 11.6667 7.77778C9.5217 7.77778 7.77778 9.5217 7.77778 11.6667C7.77778 12.803 8.27604 13.8177 9.0599 14.5286C9.74653 13.5625 10.6762 12.7726 11.7821 12.2682ZM31.8707 25.4054C31.4089 25.1441 30.8134 25.296 30.546 25.77L28.322 29.6589C28.0547 30.1267 28.2188 30.7161 28.6866 30.9835C28.8385 31.0686 29.0026 31.1111 29.1667 31.1111C29.5009 31.1111 29.829 30.9349 30.0113 30.6189L32.2352 26.73C32.4965 26.2622 32.3385 25.6727 31.8707 25.4054ZM26.0373 25.4054C25.5755 25.1441 24.98 25.296 24.7127 25.77L22.4887 29.6589C22.2214 30.1267 22.3854 30.7161 22.8533 30.9835C23.0052 31.0686 23.1693 31.1111 23.3333 31.1111C23.6675 31.1111 23.9957 30.9349 24.1779 30.6189L26.4019 26.73C26.6632 26.2622 26.5052 25.6727 26.0373 25.4054ZM20.204 25.4054C19.7422 25.1441 19.1467 25.296 18.8793 25.77L16.6554 29.6589C16.388 30.1267 16.5521 30.7161 17.02 30.9835C17.1719 31.0686 17.3359 31.1111 17.5 31.1111C17.8342 31.1111 18.1623 30.9349 18.3446 30.6189L20.5686 26.73C20.8299 26.2622 20.6719 25.6727 20.204 25.4054ZM14.3707 25.4054C13.9089 25.1441 13.3134 25.296 13.046 25.77L10.822 29.6589C10.5547 30.1267 10.7188 30.7161 11.1866 30.9835C11.3385 31.0686 11.5026 31.1111 11.6667 31.1111C12.0009 31.1111 12.329 30.9349 12.5113 30.6189L14.7352 26.73C14.9965 26.2622 14.8385 25.6727 14.3707 25.4054Z" fill="#36B3B3"/>
</g>
<defs>
<clipPath id="clip0">
<rect width="35" height="31.1111" fill="white"/>
</clipPath>
</defs>
</svg>
