<svg width="34" height="34" viewBox="0 0 34 34" fill="none" xmlns="http://www.w3.org/2000/svg">
<g clip-path="url(#clip0)">
<path d="M12.5375 22.9701L14.357 21.1505C14.5297 21.197 14.6891 21.2568 14.875 21.2568C16.0504 21.2568 17 20.3072 17 19.1318C17 17.9564 16.0504 17.0068 14.875 17.0068C13.6996 17.0068 12.75 17.9564 12.75 19.1318C12.75 19.3177 12.8098 19.4771 12.8563 19.6498L11.0367 21.4693L3.28047 13.713C2.79571 13.2283 1.94571 13.308 1.62031 13.9123C-1.15547 19.0787 -0.365232 25.6462 3.99102 30.0025C8.34727 34.3587 14.9215 35.149 20.0813 32.3732C20.6922 32.0478 20.7719 31.1978 20.2805 30.713L12.5375 22.9701ZM13.8789 0.000144601C13.268 -0.0330585 12.75 0.451707 12.75 1.06264V3.16108C12.75 3.72553 13.1883 4.19038 13.7461 4.21694C22.3391 4.68179 29.2453 11.6544 29.7434 20.2541C29.7766 20.8119 30.2414 21.2501 30.7992 21.2501H32.9309C33.5418 21.2501 34.0266 20.7322 33.9934 20.1212C33.4289 9.28374 24.7164 0.571238 13.8789 0.000144601ZM13.8988 6.37514C13.2813 6.32866 12.75 6.82007 12.75 7.44429V9.57592C12.75 10.1337 13.1816 10.5919 13.7328 10.6318C18.8328 11.0501 22.8969 15.1607 23.3551 20.274C23.4082 20.8251 23.8598 21.2501 24.4109 21.2501H26.5492C27.1668 21.2501 27.6648 20.7189 27.6184 20.1013C27.0606 12.79 21.2102 6.9396 13.8988 6.37514Z" fill="#36B3B3"/>
</g>
<defs>
<clipPath id="clip0">
<rect width="34" height="34" fill="white"/>
</clipPath>
</defs>
</svg>
