<svg width="34" height="34" viewBox="0 0 34 34" fill="none" xmlns="http://www.w3.org/2000/svg">
<path d="M30.9785 5.55801L18.2285 0.245512C17.8401 0.0843965 17.4238 0.00146484 17.0033 0.00146484C16.5828 0.00146484 16.1665 0.0843965 15.7781 0.245512L3.02812 5.55801C1.83945 6.04942 1.0625 7.21153 1.0625 8.49981C1.0625 21.6814 8.66602 30.7924 15.7715 33.7541C16.5551 34.0795 17.4383 34.0795 18.2219 33.7541C23.9129 31.3834 32.9375 23.1955 32.9375 8.49981C32.9375 7.21153 32.1605 6.04942 30.9785 5.55801ZM17.0066 29.6369L17 4.33614L28.6809 9.20372C28.4617 19.2576 23.2289 26.5424 17.0066 29.6369Z" fill="#36B3B3"/>
</svg>
