<svg width="34" height="28" viewBox="0 0 34 28" fill="none" xmlns="http://www.w3.org/2000/svg">
<g clip-path="url(#clip0)">
<path d="M11.475 15.3H8.92502C8.4554 15.3 8.07502 15.6804 8.07502 16.15V26.35C8.07502 26.8196 8.4554 27.2 8.92502 27.2H11.475C11.9446 27.2 12.325 26.8196 12.325 26.35V16.15C12.325 15.6804 11.9446 15.3 11.475 15.3ZM4.67502 20.4H2.12502C1.6554 20.4 1.27502 20.7804 1.27502 21.25V26.35C1.27502 26.8196 1.6554 27.2 2.12502 27.2H4.67502C5.14465 27.2 5.52502 26.8196 5.52502 26.35V21.25C5.52502 20.7804 5.14465 20.4 4.67502 20.4ZM18.275 10.2H15.725C15.2554 10.2 14.875 10.5804 14.875 11.05V26.35C14.875 26.8196 15.2554 27.2 15.725 27.2H18.275C18.7446 27.2 19.125 26.8196 19.125 26.35V11.05C19.125 10.5804 18.7446 10.2 18.275 10.2ZM25.075 5.1H22.525C22.0554 5.1 21.675 5.48038 21.675 5.95V26.35C21.675 26.8196 22.0554 27.2 22.525 27.2H25.075C25.5446 27.2 25.925 26.8196 25.925 26.35V5.95C25.925 5.48038 25.5446 5.1 25.075 5.1ZM31.875 0H29.325C28.8554 0 28.475 0.380375 28.475 0.85V26.35C28.475 26.8196 28.8554 27.2 29.325 27.2H31.875C32.3446 27.2 32.725 26.8196 32.725 26.35V0.85C32.725 0.380375 32.3446 0 31.875 0Z" fill="#36B3B3"/>
</g>
<defs>
<clipPath id="clip0">
<rect width="34" height="27.2" fill="white"/>
</clipPath>
</defs>
</svg>
