<svg width="34" height="34" viewBox="0 0 34 34" fill="none" xmlns="http://www.w3.org/2000/svg">
<path d="M30.505 10.0748C30.5266 10.3768 30.5266 10.6789 30.5266 10.9809C30.5266 20.1928 23.5152 30.807 10.7005 30.807C6.75252 30.807 3.08504 29.6636 0 27.6789C0.560934 27.7436 1.10022 27.7652 1.68273 27.7652C4.94029 27.7652 7.93907 26.665 10.3337 24.7881C7.27029 24.7233 4.70302 22.717 3.81849 19.9555C4.25 20.0202 4.68144 20.0634 5.13453 20.0634C5.76014 20.0634 6.38582 19.9771 6.96827 19.8261C3.77539 19.1788 1.38065 16.3743 1.38065 12.9873V12.901C2.30828 13.4188 3.38705 13.7424 4.53037 13.7855C2.65346 12.5342 1.42382 10.3984 1.42382 7.98216C1.42382 6.68777 1.76893 5.50122 2.37303 4.46568C5.80324 8.6941 10.9594 11.4555 16.741 11.7576C16.6332 11.2398 16.5684 10.7005 16.5684 10.1611C16.5684 6.321 19.675 3.19287 23.5367 3.19287C25.543 3.19287 27.3552 4.03424 28.6281 5.39338C30.2029 5.09136 31.713 4.50884 33.0507 3.71064C32.5328 5.3287 31.4326 6.68783 29.9872 7.55071C31.3895 7.39977 32.7486 7.01136 33.9999 6.47208C33.0508 7.85273 31.8642 9.08238 30.505 10.0748Z" fill="#36B3B3"/>
</svg>
